HIERARCHY
ROOT Hips
{
	OFFSET 0.000000 100.481300 0.000000
	CHANNELS 6 Xposition Yposition Zposition Xrotation Yrotation Zrotation
	JOINT Spine
	{
		OFFSET -0.279200 12.230698 -2.892100
		CHANNELS 3 Xrotation Yrotation Zrotation
		JOINT Spine1
		{
			OFFSET -0.325700 14.269203 -3.374200
			CHANNELS 3 Xrotation Yrotation Zrotation
			JOINT Spine2
			{
				OFFSET -0.372300 16.307602 -0.352600
				CHANNELS 3 Xrotation Yrotation Zrotation
				JOINT Neck
				{
					OFFSET -0.418800 17.814194 8.416900
					CHANNELS 3 Xrotation Yrotation Zrotation
					JOINT Head
					{
						OFFSET 0.000000 7.031097 3.806800
						CHANNELS 3 Xrotation Yrotation Zrotation
						JOINT HeadTop_End
						{
							OFFSET 0.000000 24.646606 12.978600
							CHANNELS 3 Xrotation Yrotation Zrotation
							End Site
							{
								OFFSET 0.000000 27.854965 0.000000
							}
						}
					}
				}
				JOINT LeftShoulder
				{
					OFFSET 16.952999 14.495407 -7.737500
					CHANNELS 3 Xrotation Yrotation Zrotation
					JOINT LeftArm
					{
						OFFSET 9.308998 -2.777710 0.208600
						CHANNELS 3 Xrotation Yrotation Zrotation
						JOINT LeftForeArm
						{
							OFFSET 29.972298 0.000000 0.000000
							CHANNELS 3 Xrotation Yrotation Zrotation
							JOINT LeftHand
							{
								OFFSET 26.026505 0.000000 0.000000
								CHANNELS 3 Xrotation Yrotation Zrotation
								JOINT LeftHandThumb1
								{
									OFFSET 12.240501 -7.147949 9.207150
									CHANNELS 3 Xrotation Yrotation Zrotation
									JOINT LeftHandThumb2
									{
										OFFSET 4.138618 -2.389435 2.389433
										CHANNELS 3 Xrotation Yrotation Zrotation
										JOINT LeftHandThumb3
										{
											OFFSET 2.726913 -1.574387 1.574386
											CHANNELS 3 Xrotation Yrotation Zrotation
											JOINT LeftHandThumb4
											{
												OFFSET 3.941010 -2.275345 2.275342
												CHANNELS 3 Xrotation Yrotation Zrotation
												End Site
												{
													OFFSET -0.005798 5.087799 0.009903
												}
											}
										}
									}
								}
								JOINT LeftHandIndex1
								{
									OFFSET 24.424698 -1.985611 5.953459
									CHANNELS 3 Xrotation Yrotation Zrotation
									JOINT LeftHandIndex2
									{
										OFFSET 6.426697 0.000000 0.000000
										CHANNELS 3 Xrotation Yrotation Zrotation
										JOINT LeftHandIndex3
										{
											OFFSET 5.337898 0.000000 0.000000
											CHANNELS 3 Xrotation Yrotation Zrotation
											JOINT LeftHandIndex4
											{
												OFFSET 4.409401 0.000000 0.000000
												CHANNELS 3 Xrotation Yrotation Zrotation
												End Site
												{
													OFFSET 0.000000 4.409363 0.014373
												}
											}
										}
									}
								}
								JOINT LeftHandMiddle1
								{
									OFFSET 23.810104 0.000000 0.000000
									CHANNELS 3 Xrotation Yrotation Zrotation
									JOINT LeftHandMiddle2
									{
										OFFSET 7.176498 0.000000 0.000000
										CHANNELS 3 Xrotation Yrotation Zrotation
										JOINT LeftHandMiddle3
										{
											OFFSET 6.774902 0.000000 0.000000
											CHANNELS 3 Xrotation Yrotation Zrotation
											JOINT LeftHandMiddle4
											{
												OFFSET 5.403328 0.000000 0.000000
												CHANNELS 3 Xrotation Yrotation Zrotation
												End Site
												{
													OFFSET -0.027702 5.403244 0.017414
												}
											}
										}
									}
								}
								JOINT LeftHandRing1
								{
									OFFSET 22.908401 -0.839279 -6.020567
									CHANNELS 3 Xrotation Yrotation Zrotation
									JOINT LeftHandRing2
									{
										OFFSET 6.337502 0.000000 0.000000
										CHANNELS 3 Xrotation Yrotation Zrotation
										JOINT LeftHandRing3
										{
											OFFSET 5.779297 0.000000 0.000000
											CHANNELS 3 Xrotation Yrotation Zrotation
											JOINT LeftHandRing4
											{
												OFFSET 4.965698 0.000000 0.000000
												CHANNELS 3 Xrotation Yrotation Zrotation
												End Site
												{
													OFFSET 0.000000 4.965668 0.016186
												}
											}
										}
									}
								}
								JOINT LeftHandPinky1
								{
									OFFSET 20.037003 -1.530319 -10.950146
									CHANNELS 3 Xrotation Yrotation Zrotation
									JOINT LeftHandPinky2
									{
										OFFSET 5.254700 0.000000 0.000000
										CHANNELS 3 Xrotation Yrotation Zrotation
										JOINT LeftHandPinky3
										{
											OFFSET 4.810204 0.000000 0.000000
											CHANNELS 3 Xrotation Yrotation Zrotation
											JOINT LeftHandPinky4
											{
												OFFSET 3.647202 0.000000 0.000000
												CHANNELS 3 Xrotation Yrotation Zrotation
												End Site
												{
													OFFSET 0.000000 3.647186 0.011889
												}
											}
										}
									}
								}
							}
						}
					}
				}
				JOINT RightShoulder
				{
					OFFSET -15.141001 14.495407 -7.737500
					CHANNELS 3 Xrotation Yrotation Zrotation
					JOINT RightArm
					{
						OFFSET -9.308998 -2.777710 0.208500
						CHANNELS 3 Xrotation Yrotation Zrotation
						JOINT RightForeArm
						{
							OFFSET -29.972300 0.000000 0.000000
							CHANNELS 3 Xrotation Yrotation Zrotation
							JOINT RightHand
							{
								OFFSET -26.026505 0.000000 0.000000
								CHANNELS 3 Xrotation Yrotation Zrotation
								JOINT RightHandThumb1
								{
									OFFSET -12.240601 -7.148026 9.207092
									CHANNELS 3 Xrotation Yrotation Zrotation
									JOINT RightHandThumb2
									{
										OFFSET -4.138618 -2.389435 2.389433
										CHANNELS 3 Xrotation Yrotation Zrotation
										JOINT RightHandThumb3
										{
											OFFSET -2.726974 -1.574417 1.574421
											CHANNELS 3 Xrotation Yrotation Zrotation
											JOINT RightHandThumb4
											{
												OFFSET -3.941010 -2.275345 2.275343
												CHANNELS 3 Xrotation Yrotation Zrotation
												End Site
												{
													OFFSET 0.005814 5.087799 0.009927
												}
											}
										}
									}
								}
								JOINT RightHandIndex1
								{
									OFFSET -24.424698 -1.985657 5.953444
									CHANNELS 3 Xrotation Yrotation Zrotation
									JOINT RightHandIndex2
									{
										OFFSET -6.426697 0.000000 0.000000
										CHANNELS 3 Xrotation Yrotation Zrotation
										JOINT RightHandIndex3
										{
											OFFSET -5.337898 0.000000 0.000000
											CHANNELS 3 Xrotation Yrotation Zrotation
											JOINT RightHandIndex4
											{
												OFFSET -4.409401 0.000000 0.000000
												CHANNELS 3 Xrotation Yrotation Zrotation
												End Site
												{
													OFFSET 0.000000 4.409363 0.014408
												}
											}
										}
									}
								}
								JOINT RightHandMiddle1
								{
									OFFSET -23.810097 0.000000 0.000000
									CHANNELS 3 Xrotation Yrotation Zrotation
									JOINT RightHandMiddle2
									{
										OFFSET -7.176498 0.000000 0.000000
										CHANNELS 3 Xrotation Yrotation Zrotation
										JOINT RightHandMiddle3
										{
											OFFSET -6.774902 0.000000 0.000000
											CHANNELS 3 Xrotation Yrotation Zrotation
											JOINT RightHandMiddle4
											{
												OFFSET -5.403328 0.000000 0.000000
												CHANNELS 3 Xrotation Yrotation Zrotation
												End Site
												{
													OFFSET 0.027702 5.403244 0.017457
												}
											}
										}
									}
								}
								JOINT RightHandRing1
								{
									OFFSET -22.908302 -0.839325 -6.020576
									CHANNELS 3 Xrotation Yrotation Zrotation
									JOINT RightHandRing2
									{
										OFFSET -6.337502 0.000000 0.000000
										CHANNELS 3 Xrotation Yrotation Zrotation
										JOINT RightHandRing3
										{
											OFFSET -5.779297 0.000000 0.000000
											CHANNELS 3 Xrotation Yrotation Zrotation
											JOINT RightHandRing4
											{
												OFFSET -4.965698 0.000000 0.000000
												CHANNELS 3 Xrotation Yrotation Zrotation
												End Site
												{
													OFFSET 0.000000 4.965668 0.016226
												}
											}
										}
									}
								}
								JOINT RightHandPinky1
								{
									OFFSET -20.037003 -1.530334 -10.950259
									CHANNELS 3 Xrotation Yrotation Zrotation
									JOINT RightHandPinky2
									{
										OFFSET -5.254700 0.000000 0.000000
										CHANNELS 3 Xrotation Yrotation Zrotation
										JOINT RightHandPinky3
										{
											OFFSET -4.810204 0.000000 0.000000
											CHANNELS 3 Xrotation Yrotation Zrotation
											JOINT RightHandPinky4
											{
												OFFSET -3.647202 0.000000 0.000000
												CHANNELS 3 Xrotation Yrotation Zrotation
												End Site
												{
													OFFSET 0.000000 3.647186 0.011917
												}
											}
										}
									}
								}
							}
						}
					}
				}
			}
		}
	}
	JOINT LeftUpLeg
	{
		OFFSET 15.427100 -6.655098 0.678600
		CHANNELS 3 Xrotation Yrotation Zrotation
		JOINT LeftLeg
		{
			OFFSET 4.081073 -39.591068 13.024000
			CHANNELS 3 Xrotation Yrotation Zrotation
			JOINT LeftFoot
			{
				OFFSET -4.081074 -37.707932 -15.979700
				CHANNELS 3 Xrotation Yrotation Zrotation
				JOINT LeftToeBase
				{
					OFFSET 5.346399 -15.068900 20.645000
					CHANNELS 3 Xrotation Yrotation Zrotation
					JOINT LeftToe_End
					{
						OFFSET 2.754700 0.931300 11.300900
						CHANNELS 3 Xrotation Yrotation Zrotation
						End Site
						{
							OFFSET 0.000000 11.669021 0.000000
						}
					}
				}
			}
		}
	}
	JOINT RightUpLeg
	{
		OFFSET -15.569500 -6.655098 0.678600
		CHANNELS 3 Xrotation Yrotation Zrotation
		JOINT RightLeg
		{
			OFFSET -4.081825 -39.591045 13.023800
			CHANNELS 3 Xrotation Yrotation Zrotation
			JOINT RightFoot
			{
				OFFSET 4.081824 -37.707954 -15.979600
				CHANNELS 3 Xrotation Yrotation Zrotation
				JOINT RightToeBase
				{
					OFFSET -5.346400 -15.068900 20.645000
					CHANNELS 3 Xrotation Yrotation Zrotation
					JOINT RightToe_End
					{
						OFFSET -2.754700 0.931300 11.300900
						CHANNELS 3 Xrotation Yrotation Zrotation
						End Site
						{
							OFFSET 0.000000 11.669021 0.000000
						}
					}
				}
			}
		}
	}
}
MOTION
Frames: 4
Frame Time: 0.033333
-0.343562 84.624290 157.193939 -3.625843 -14.309555 -3.834253 10.167916 3.295884 7.152034 9.107039 0.331846 -2.234147 9.119824 0.234434 -2.178854 4.014461 2.887614 -3.787950 2.513711 13.273808 -12.067285 -0.000002 0.000000 -0.000001 0.070487 2.376704 0.462238 15.897187 -33.448136 -42.760884 -0.030855 -89.750298 -0.030805 -6.894172 16.911704 -0.682711 -3.918452 21.714331 13.619394 4.619978 16.283301 1.366838 0.085968 8.981028 3.251602 0.000001 -0.000001 0.000001 0.083034 1.068246 -8.888637 0.083035 1.068269 -8.888607 0.083036 1.068258 -8.888619 -0.000001 -0.000001 -0.000001 0.094869 1.141343 -9.502407 0.134490 1.356942 -11.319713 0.142143 1.394633 -11.638475 0.000002 -0.000000 0.000000 0.161013 1.483244 -12.389862 0.226704 1.755731 -14.714314 0.240257 1.806496 -15.150201 -0.000001 -0.000000 -0.000002 1.588237 6.003718 -17.658226 0.342284 -1.912435 -18.565902 0.341289 2.144866 -18.079991 0.000001 0.000001 0.000002 1.651424 11.572413 6.798746 -52.346939 35.140121 76.883854 -0.000008 12.211106 -0.000004 21.352081 0.190006 9.986251 -3.430852 -18.334249 -12.490460 5.383147 -16.953962 -0.794296 -0.770314 -5.341378 -2.677110 0.000001 0.000000 0.000003 0.152308 -1.450246 11.990062 0.152295 -1.450236 11.990077 0.152308 -1.450244 11.990068 0.000001 0.000000 0.000000 0.131368 -1.347918 11.132507 0.185036 -1.596513 13.220863 0.196108 -1.642912 13.612459 0.000001 -0.000001 -0.000000 0.175435 -1.555125 12.871897 0.246990 -1.840322 15.286913 0.261750 -1.893449 15.739799 -0.000000 -0.000002 -0.000001 0.325180 -2.105458 17.557978 0.325198 -2.105473 17.557944 0.325183 -2.105448 17.557971 -0.000002 0.000000 -0.000001 -33.077274 6.019621 1.743431 65.488885 11.168759 10.578844 23.520018 3.298709 -4.150892 -40.850952 5.624416 -11.090318 -0.000000 -0.000000 0.000000 -27.822880 -8.860302 6.473388 47.779683 -5.321690 -10.911888 -9.356464 -0.583033 -0.666437 -10.277403 0.000004 0.000000 0.000000 0.000002 -0.000000 
-1.399414 82.601616 160.923737 -3.820597 -10.215997 -8.409073 9.065450 5.554035 13.308521 8.966958 0.655261 -1.218577 8.984324 0.518410 -1.136808 3.967212 2.263565 -4.795365 3.085943 8.595894 -11.781731 -0.000001 0.000001 -0.000001 -0.160710 5.587622 -0.176589 21.489131 -34.881889 -33.966654 -0.000086 -101.072654 -0.000088 -9.994168 14.144398 -1.031139 -3.918460 21.714326 13.619392 4.619973 16.283299 1.366839 0.085968 8.981027 3.251606 -0.000000 -0.000001 0.000000 0.083031 1.068243 -8.888635 0.083035 1.068265 -8.888611 0.083035 1.068261 -8.888618 0.000000 0.000001 0.000000 0.094864 1.141341 -9.502405 0.134487 1.356940 -11.319716 0.142144 1.394637 -11.638473 0.000000 -0.000001 -0.000001 0.161010 1.483245 -12.389862 0.226707 1.755735 -14.714318 0.240257 1.806489 -15.150203 0.000000 0.000001 0.000000 1.588231 6.003715 -17.658223 0.342284 -1.912436 -18.565907 0.341290 2.144865 -18.079991 -0.000000 0.000003 0.000000 1.494484 13.168136 5.090161 -49.396447 33.743330 72.505573 -0.000003 2.756603 -0.000014 16.643301 6.668037 6.550468 -3.430854 -18.334253 -12.490459 5.383141 -16.953964 -0.794300 -0.770313 -5.341376 -2.677105 -0.000004 0.000000 -0.000001 0.152311 -1.450245 11.990064 0.152297 -1.450235 11.990073 0.152309 -1.450244 11.990069 0.000002 -0.000002 -0.000001 0.131368 -1.347922 11.132513 0.185030 -1.596511 13.220865 0.196103 -1.642911 13.612458 0.000001 -0.000003 -0.000002 0.175434 -1.555126 12.871896 0.246992 -1.840317 15.286913 0.261750 -1.893450 15.739799 0.000004 -0.000001 0.000001 0.325182 -2.105458 17.557980 0.325195 -2.105475 17.557946 0.325184 -2.105452 17.557971 -0.000000 -0.000000 0.000000 -44.697287 -2.195720 2.522224 71.542557 10.284738 9.997870 45.798829 -3.850297 -2.185247 -50.009255 6.880901 -6.628943 0.000001 0.000000 -0.000000 -18.652922 -6.205147 5.855532 43.809827 -3.431434 -1.934425 -20.633769 -1.600518 0.117690 -6.973566 -0.000002 0.000003 -0.000000 0.000000 -0.000001 
-2.721483 80.443092 165.196808 -4.492902 -6.249588 -11.430062 8.976795 6.663152 17.729259 8.262382 0.803303 -0.536315 8.283681 0.627801 -0.450295 3.930160 1.923655 -5.597470 3.444806 5.541174 -11.170552 0.000002 0.000000 -0.000000 -0.363199 8.311503 -0.437702 24.928531 -33.465065 -26.496889 -0.000053 -108.398688 -0.000051 -11.895958 4.518574 -3.095228 -3.918460 21.714324 13.619393 4.619974 16.283299 1.366841 0.085966 8.981025 3.251603 0.000004 -0.000000 0.000001 0.083033 1.068248 -8.888635 0.083036 1.068265 -8.888614 0.083036 1.068258 -8.888617 0.000000 0.000003 -0.000000 0.094868 1.141345 -9.502405 0.134489 1.356942 -11.319717 0.142143 1.394635 -11.638470 -0.000000 0.000003 0.000001 0.161011 1.483245 -12.389862 0.226707 1.755731 -14.714312 0.240257 1.806498 -15.150201 -0.000000 -0.000002 0.000000 1.588233 6.003718 -17.658226 0.342285 -1.912434 -18.565904 0.341290 2.144866 -18.079992 0.000002 0.000001 0.000000 1.409181 14.988340 3.480961 -39.982698 31.874751 67.274269 -0.000017 4.558485 -0.000004 8.660814 10.567138 4.746633 -3.430854 -18.334251 -12.490457 5.383140 -16.953966 -0.794300 -0.770312 -5.341373 -2.677105 -0.000002 -0.000001 -0.000000 0.152311 -1.450244 11.990062 0.152296 -1.450236 11.990074 0.152310 -1.450249 11.990067 0.000001 0.000001 0.000000 0.131368 -1.347917 11.132507 0.185032 -1.596512 13.220861 0.196106 -1.642907 13.612459 -0.000001 0.000001 0.000000 0.175434 -1.555124 12.871896 0.246986 -1.840322 15.286913 0.261751 -1.893449 15.739797 0.000001 -0.000002 -0.000001 0.325182 -2.105455 17.557976 0.325198 -2.105475 17.557944 0.325187 -2.105447 17.557973 -0.000002 0.000000 0.000000 -55.834648 -7.492743 -0.227036 79.540715 8.285907 9.650307 53.804863 -5.021913 -3.708917 -9.945222 0.588071 -2.963051 0.000002 0.000000 0.000000 -11.897556 -4.670039 4.954933 43.528085 -1.923965 5.665469 -26.143780 -1.978201 0.589881 -4.847733 -0.000007 -0.000002 -0.000000 -0.000002 -0.000000 
-3.984283 79.266815 168.652893 -5.520579 -3.427670 -13.353944 9.491965 7.760198 19.537836 7.561297 0.932854 0.306397 7.582118 0.749150 0.388221 4.004843 1.606339 -5.664211 3.551660 3.746588 -10.851825 0.000001 -0.000001 0.000000 -0.443430 9.560120 -0.554987 25.300904 -32.334997 -21.808937 0.000007 -110.912833 0.000009 -12.236758 -5.243093 -5.166097 -3.918462 21.714327 13.619398 4.619970 16.283299 1.366840 0.085966 8.981029 3.251602 -0.000002 0.000002 -0.000001 0.083030 1.068248 -8.888635 0.083037 1.068265 -8.888614 0.083036 1.068256 -8.888618 -0.000000 -0.000002 0.000000 0.094865 1.141341 -9.502404 0.134488 1.356937 -11.319716 0.142143 1.394635 -11.638472 0.000000 -0.000003 0.000000 0.161008 1.483247 -12.389858 0.226706 1.755729 -14.714316 0.240257 1.806498 -15.150203 0.000000 0.000003 0.000000 1.588232 6.003719 -17.658221 0.342284 -1.912435 -18.565904 0.341290 2.144865 -18.079992 0.000001 -0.000001 0.000000 1.395500 15.666176 2.878024 -34.015643 29.863663 64.998628 -0.000003 6.583894 0.000007 2.566028 11.346954 4.529317 -3.430860 -18.334253 -12.490452 5.383144 -16.953964 -0.794299 -0.770314 -5.341377 -2.677108 0.000001 -0.000003 0.000001 0.152305 -1.450245 11.990062 0.152298 -1.450236 11.990074 0.152304 -1.450247 11.990067 0.000002 0.000001 0.000002 0.131365 -1.347921 11.132512 0.185029 -1.596511 13.220865 0.196105 -1.642907 13.612461 0.000001 -0.000000 -0.000000 0.175431 -1.555125 12.871898 0.246989 -1.840323 15.286913 0.261754 -1.893447 15.739800 0.000001 -0.000001 -0.000000 0.325175 -2.105456 17.557978 0.325191 -2.105473 17.557944 0.325188 -2.105449 17.557973 -0.000001 0.000002 -0.000001 -63.887417 -10.156705 -1.937309 83.495607 8.774566 9.237939 55.193184 -5.490607 -4.304283 -1.480911 0.049513 -0.753011 -0.000001 0.000000 0.000000 -5.373723 -6.000643 5.830542 42.477124 -0.730474 9.167117 -30.121073 -1.307485 -1.512264 -3.164726 -0.000003 0.000000 0.000000 0.000000 -0.000000 
